# xmcd
#
# Track frame offsets: 
#        150
#        12545
#        24145
#        36883
#        47783
#        56133
#        68158
#        80858
#        97845
#        109733
#        121133
#        129720
#        138058
#        150108
#        166220
#        175933
#        192233
#        204908
#        217545
#        228083
#
# Disc length: 3283 seconds
#
# Revision: 5
# Processed by: cddbd v1.5.2PL0 Copyright (c) Steve Scherf et al.
# Submitted via: ExactAudioCopy v0.90b4
#
DISCID=f80cd114
DTITLE=Johnny Cash - Ring Of Fire And Other Great Hits Live
DYEAR=1996
DGENRE=Country
TTITLE0=Folsom Prison Blues
TTITLE1=These Hands
TTITLE2=Peace In The Valley
TTITLE3=Rock Island Line
TTITLE4=The Wall
TTITLE5=Still Miss Someone
TTITLE6=Ring Of Fire
TTITLE7=Sunday Morning Coming Down
TTITLE8=The Highwayman
TTITLE9=Big River
TTITLE10=I Got Stripes
TTITLE11=Get Rythm
TTITLE12=Sixteen Tons
TTITLE13=A Boy Named Sue
TTITLE14=Help Me
TTITLE15=City Of New Orleans
TTITLE16=Long Black Veil
TTITLE17=Jackson
TTITLE18=If I Were A Carpenter
TTITLE19=Orange Blossom Special
EXTD=YEAR: 1997 ID3G: 2
EXTT0=
EXTT1=
EXTT2=
EXTT3=
EXTT4=
EXTT5=
EXTT6=
EXTT7=
EXTT8=
EXTT9=
EXTT10=
EXTT11=
EXTT12=
EXTT13=
EXTT14=
EXTT15=
EXTT16=
EXTT17=
EXTT18=
EXTT19=
PLAYORDER=
